<svg width="24" height="24" viewBox="0 0 24 24" fill="none" xmlns="http://www.w3.org/2000/svg">
<path d="M12 12C13.1935 12 14.3381 11.5259 15.182 10.682C16.0259 9.83807 16.5 8.69347 16.5 7.5C16.5 6.30653 16.0259 5.16193 15.182 4.31802C14.3381 3.47411 13.1935 3 12 3C10.8065 3 9.66193 3.47411 8.81802 4.31802C7.97411 5.16193 7.5 6.30653 7.5 7.5C7.5 8.69347 7.97411 9.83807 8.81802 10.682C9.66193 11.5259 10.8065 12 12 12ZM12 13.5C10.4087 13.5 8.88258 12.8679 7.75736 11.7426C6.63214 10.6174 6 9.0913 6 7.5C6 5.9087 6.63214 4.38258 7.75736 3.25736C8.88258 2.13214 10.4087 1.5 12 1.5C13.5913 1.5 15.1174 2.13214 16.2426 3.25736C17.3679 4.38258 18 5.9087 18 7.5C18 9.0913 17.3679 10.6174 16.2426 11.7426C15.1174 12.8679 13.5913 13.5 12 13.5ZM19.5 21V18.75C19.5 18.1533 19.2629 17.581 18.841 17.159C18.419 16.7371 17.8467 16.5 17.25 16.5H6.75C6.15326 16.5 5.58097 16.7371 5.15901 17.159C4.73705 17.581 4.5 18.1533 4.5 18.75V21C4.5 21.1989 4.42098 21.3897 4.28033 21.5303C4.13968 21.671 3.94891 21.75 3.75 21.75C3.55109 21.75 3.36032 21.671 3.21967 21.5303C3.07902 21.3897 3 21.1989 3 21V18.75C3 17.7554 3.39509 16.8016 4.09835 16.0983C4.80161 15.3951 5.75544 15 6.75 15H17.25C18.2446 15 19.1984 15.3951 19.9016 16.0983C20.6049 16.8016 21 17.7554 21 18.75V21C21 21.1989 20.921 21.3897 20.7803 21.5303C20.6397 21.671 20.4489 21.75 20.25 21.75C20.0511 21.75 19.8603 21.671 19.7197 21.5303C19.579 21.3897 19.5 21.1989 19.5 21Z" fill="#1D1D1D"/>
</svg>
