<svg width="24" height="24" viewBox="0 0 24 24" fill="none" xmlns="http://www.w3.org/2000/svg">
<path d="M8.57488 16.9924H20.2972C20.6884 16.9924 21.03 16.671 21.03 16.239C21.03 15.807 20.6884 15.4856 20.2972 15.4856H8.74545C8.17288 15.4856 7.82145 15.0836 7.73102 14.4712L7.5703 13.4164H20.3169C21.7834 13.4164 22.5369 12.5122 22.7477 11.076L23.5513 5.76216C23.5726 5.63598 23.5861 5.50859 23.5916 5.38073C23.5916 4.89859 23.2299 4.56688 22.6774 4.56688H6.27473L6.08359 3.29145C5.9833 2.51788 5.70216 2.12573 4.67788 2.12573H1.15159C0.750019 2.12573 0.408447 2.47802 0.408447 2.88002C0.408447 3.29145 0.750019 3.6433 1.15202 3.6433H4.54673L6.15388 14.6722C6.36516 16.0984 7.11816 16.9924 8.57488 16.9924ZM21.8837 6.08359L21.1714 10.8952C21.0909 11.5179 20.7596 11.8997 20.1669 11.8997L7.35002 11.9096L6.49588 6.08359H21.8837ZM9.36859 21.8743C9.58278 21.8761 9.79518 21.8352 9.99341 21.754C10.1916 21.6729 10.3717 21.5531 10.5232 21.4016C10.6747 21.2502 10.7945 21.0701 10.8756 20.8718C10.9568 20.6736 10.9976 20.4612 10.9959 20.247C10.9968 20.0331 10.9553 19.8211 10.8739 19.6232C10.7924 19.4254 10.6726 19.2456 10.5213 19.0943C10.37 18.943 10.1902 18.8232 9.9924 18.7418C9.79456 18.6603 9.58254 18.6188 9.36859 18.6197C8.45488 18.6197 7.73145 19.3432 7.73145 20.247C7.73145 21.1612 8.45488 21.8743 9.36859 21.8743ZM18.7603 21.8743C19.6744 21.8743 20.3974 21.1612 20.3974 20.247C20.3974 19.3427 19.6744 18.6197 18.7603 18.6197C17.8564 18.6197 17.1232 19.3432 17.1232 20.247C17.1232 21.1612 17.8564 21.8743 18.7603 21.8743Z" fill="#1D1D1D"/>
</svg>
