<svg width="222" height="41" viewBox="0 0 222 41" fill="none" xmlns="http://www.w3.org/2000/svg">
<path d="M29.7007 11.3643C28.5785 10.2369 27.2353 9.3658 25.6711 8.75088C24.1238 8.13596 22.4661 7.8285 20.6978 7.8285C18.9296 7.8285 17.3143 8.13596 15.8521 8.75088C14.3899 9.3658 13.1317 10.2455 12.0775 11.3899C11.0233 12.5343 10.2072 13.9008 9.62913 15.4894C9.05104 17.0608 8.762 18.8202 8.762 20.7674C8.762 22.7147 9.05104 24.4996 9.62913 26.1224C10.2242 27.7451 11.0574 29.1457 12.1285 30.3243C13.2167 31.4858 14.5004 32.3911 15.9796 33.0402C17.4758 33.6893 19.1251 34.0138 20.9274 34.0138C22.4236 34.0138 23.7923 33.7832 25.0335 33.322C26.2917 32.8608 27.3969 32.2032 28.349 31.3492C29.3011 30.4951 30.0833 29.4617 30.6954 28.2489C31.3245 27.0362 31.758 25.6782 31.9961 24.1751H20.9019V18.154H38.9076L39.1371 21.1261C39.1371 24.047 38.6866 26.7202 37.7854 29.1457C36.9013 31.5712 35.6431 33.6637 34.0109 35.423C32.3786 37.1653 30.4318 38.5147 28.1705 39.4712C25.9261 40.4278 23.4352 40.906 20.6978 40.906C17.8584 40.906 15.223 40.4021 12.7916 39.3944C10.3772 38.3866 8.26042 36.9774 6.44115 35.1668C4.63887 33.3562 3.23616 31.2381 2.233 28.8126C1.22985 26.37 0.728271 23.731 0.728271 20.8955C0.728271 18.0601 1.22135 15.4381 2.2075 13.0297C3.21065 10.6042 4.60486 8.48612 6.39014 6.67553C8.19241 4.86493 10.2922 3.45574 12.6896 2.44796C15.087 1.44017 17.6969 0.936279 20.5193 0.936279C23.1547 0.936279 25.7051 1.39747 28.1705 2.31985C30.6358 3.24223 32.8377 4.55747 34.776 6.26558L29.7007 11.3643Z" fill="#545454"/>
<path d="M47.732 8.39218C46.7628 8.39218 45.9467 8.05055 45.2836 7.36731C44.6205 6.68407 44.2889 5.85563 44.2889 4.88201C44.2889 3.90839 44.6205 3.0885 45.2836 2.42233C45.9467 1.73909 46.7628 1.39747 47.732 1.39747C48.7181 1.39747 49.5427 1.73909 50.2058 2.42233C50.8859 3.0885 51.226 3.90839 51.226 4.88201C51.226 5.85563 50.8859 6.68407 50.2058 7.36731C49.5427 8.05055 48.7181 8.39218 47.732 8.39218ZM51.4045 40.1374H44.0849V14.5157H51.4045V40.1374Z" fill="#545454"/>
<path d="M67.0894 40.1374H59.7698V21.0749H55.3066V14.5157H59.7698V10.5188C59.7698 8.67401 60.2034 7.03423 61.0705 5.59942C61.9376 4.14752 63.1278 3.01163 64.641 2.19174C66.1713 1.35477 67.9055 0.936279 69.8438 0.936279C71.068 0.936279 72.3177 1.11563 73.5929 1.47433C74.8681 1.81596 76.1263 2.36255 77.3675 3.11412L74.5876 8.82774C74.0435 8.38364 73.4654 8.05909 72.8533 7.85412C72.2582 7.63207 71.6631 7.52104 71.068 7.52104C69.9459 7.52104 69.0022 7.91391 68.2371 8.69964C67.472 9.48537 67.0894 10.57 67.0894 11.9536V14.5157H74.7151V21.0749H67.0894V40.1374Z" fill="#545454"/>
<path d="M98.2807 39.4712C96.3254 40.257 94.4296 40.6498 92.5933 40.6498C90.689 40.6498 89.0058 40.2484 87.5435 39.4456C86.0983 38.6257 84.9677 37.4898 84.1515 36.0379C83.3354 34.569 82.9273 32.8779 82.9273 30.9648V21.0749H78.4642V14.5157H83.3099V8.11034H90.247V14.5157H97.3115V21.0749H90.247V29.6325C90.247 31.0332 90.6295 32.1264 91.3946 32.9121C92.1598 33.6807 93.1119 34.0651 94.2511 34.0651C95.2882 34.0651 96.2999 33.7405 97.286 33.0914L98.2807 39.4712Z" fill="#545454"/>
<path d="M123.81 40.1374H115.496L100.244 1.70493H108.482L119.653 31.1186L130.773 1.70493H139.036L123.81 40.1374Z" fill="#545454"/>
<path d="M145.157 8.39218C144.188 8.39218 143.372 8.05055 142.708 7.36731C142.045 6.68407 141.714 5.85563 141.714 4.88201C141.714 3.90839 142.045 3.0885 142.708 2.42233C143.372 1.73909 144.188 1.39747 145.157 1.39747C146.143 1.39747 146.968 1.73909 147.631 2.42233C148.311 3.0885 148.651 3.90839 148.651 4.88201C148.651 5.85563 148.311 6.68407 147.631 7.36731C146.968 8.05055 146.143 8.39218 145.157 8.39218ZM148.829 40.1374H141.51V14.5157H148.829V40.1374Z" fill="#545454"/>
<path d="M153.344 37.9339L154.95 31.6822C155.46 32.2459 156.141 32.7669 156.991 33.2452C157.858 33.7234 158.784 34.1078 159.771 34.3981C160.774 34.6714 161.717 34.8081 162.602 34.8081C163.656 34.8081 164.48 34.6117 165.075 34.2188C165.671 33.8088 165.968 33.2622 165.968 32.579C165.968 32.0153 165.764 31.5456 165.356 31.1698C164.965 30.7769 164.429 30.4353 163.749 30.1449C163.086 29.8375 162.346 29.5386 161.53 29.2482C160.425 28.8212 159.286 28.3258 158.113 27.7621C156.957 27.1985 155.979 26.4298 155.18 25.4562C154.381 24.4826 153.981 23.1929 153.981 21.5873C153.981 20.05 154.381 18.7177 155.18 17.5903C155.979 16.4459 157.11 15.5662 158.572 14.9513C160.034 14.3193 161.734 14.0033 163.673 14.0033C166.818 14.0033 169.955 14.7976 173.084 16.3861L171.018 22.2022C170.474 21.7752 169.794 21.3823 168.978 21.0236C168.161 20.6479 167.32 20.3489 166.453 20.1269C165.602 19.9048 164.837 19.7938 164.157 19.7938C163.324 19.7938 162.67 19.9646 162.193 20.3062C161.734 20.6479 161.505 21.1176 161.505 21.7154C161.505 22.1595 161.666 22.5609 161.989 22.9196C162.312 23.2613 162.789 23.5943 163.418 23.9189C164.064 24.2263 164.854 24.5594 165.79 24.9181C166.946 25.3452 168.11 25.8576 169.284 26.4554C170.474 27.0362 171.468 27.8219 172.268 28.8126C173.084 29.7862 173.492 31.0844 173.492 32.7071C173.492 34.2957 173.058 35.6878 172.191 36.8834C171.341 38.0791 170.134 39.01 168.569 39.6762C167.022 40.3253 165.203 40.6498 163.112 40.6498C159.626 40.6498 156.37 39.7445 153.344 37.9339Z" fill="#545454"/>
<path d="M195.502 39.4712C193.546 40.257 191.65 40.6498 189.814 40.6498C187.91 40.6498 186.227 40.2484 184.764 39.4456C183.319 38.6257 182.189 37.4898 181.372 36.0379C180.556 34.569 180.148 32.8779 180.148 30.9648V21.0749H175.685V14.5157H180.531V8.11034H187.468V14.5157H194.532V21.0749H187.468V29.6325C187.468 31.0332 187.85 32.1264 188.616 32.9121C189.381 33.6807 190.333 34.0651 191.472 34.0651C192.509 34.0651 193.521 33.7405 194.507 33.0914L195.502 39.4712Z" fill="#545454"/>
<path d="M222 40.1374H215.624L215.242 37.0884C214.306 38.2158 213.15 39.0954 211.773 39.7274C210.396 40.3424 208.883 40.6498 207.233 40.6498C205.448 40.6498 203.858 40.3082 202.464 39.625C201.07 38.9246 199.973 37.9681 199.174 36.7553C198.375 35.5255 197.975 34.1334 197.975 32.579C197.975 30.9392 198.409 29.4959 199.276 28.2489C200.143 27.002 201.333 26.0284 202.847 25.3281C204.377 24.6107 206.111 24.252 208.049 24.252C209.189 24.252 210.328 24.3801 211.467 24.6363C212.623 24.8925 213.694 25.2512 214.68 25.7124V25.0462C214.68 24.0214 214.391 23.1417 213.813 22.4072C213.252 21.6556 212.47 21.0749 211.467 20.6649C210.481 20.255 209.376 20.05 208.152 20.05C206.978 20.05 205.814 20.2379 204.657 20.6137C203.518 20.9895 202.464 21.5532 201.495 22.3047L199.506 16.6936C201.223 15.8054 202.957 15.1392 204.708 14.6951C206.477 14.2339 208.186 14.0033 209.835 14.0033C212.317 14.0033 214.468 14.4987 216.287 15.4894C218.107 16.463 219.509 17.8466 220.495 19.6401C221.499 21.4165 222 23.526 222 25.9686V40.1374ZM208.84 34.9874C209.809 34.9874 210.736 34.7739 211.62 34.3469C212.504 33.9199 213.218 33.3391 213.762 32.6046C214.323 31.8701 214.621 31.0588 214.655 30.1706V29.9912C213.907 29.4788 213.074 29.0859 212.156 28.8126C211.254 28.5222 210.336 28.3771 209.401 28.3771C208.007 28.3771 206.868 28.6845 205.984 29.2994C205.1 29.9144 204.657 30.7086 204.657 31.6822C204.657 32.3142 204.836 32.8865 205.193 33.3989C205.567 33.8942 206.069 34.2871 206.698 34.5775C207.327 34.8508 208.041 34.9874 208.84 34.9874Z" fill="#545454"/>
</svg>
