<svg width="190" height="34" viewBox="0 0 190 34" fill="none" xmlns="http://www.w3.org/2000/svg">
<path d="M25.6472 9.07275C24.6881 8.13021 23.5401 7.40188 22.2032 6.88777C20.8808 6.37365 19.4639 6.1166 17.9527 6.1166C16.4414 6.1166 15.0609 6.37365 13.8111 6.88777C12.5614 7.40188 11.4861 8.13735 10.5851 9.09417C9.68416 10.051 8.98664 11.1935 8.49256 12.5216C7.99849 13.8354 7.75145 15.3064 7.75145 16.9344C7.75145 18.5624 7.99849 20.0548 8.49256 21.4115C9.00117 22.7681 9.71322 23.9392 10.6287 24.9246C11.5587 25.8957 12.6559 26.6526 13.9201 27.1952C15.1989 27.7379 16.6085 28.0092 18.1488 28.0092C19.4276 28.0092 20.5974 27.8164 21.6582 27.4309C22.7336 27.0453 23.6781 26.4955 24.4919 25.7814C25.3057 25.0674 25.9741 24.2034 26.4973 23.1894C27.0349 22.1755 27.4055 21.0402 27.6089 19.7834H18.127V14.7494H33.516L33.7122 17.2343C33.7122 19.6763 33.3271 21.9113 32.5569 23.9392C31.8013 25.9671 30.726 27.7165 29.3309 29.1874C27.9359 30.6441 26.272 31.7723 24.3393 32.572C22.4211 33.3717 20.2923 33.7716 17.9527 33.7716C15.5259 33.7716 13.2735 33.3503 11.1954 32.5077C9.13196 31.6652 7.32277 30.487 5.76788 28.9732C4.22753 27.4594 3.02867 25.6886 2.1713 23.6607C1.31394 21.6185 0.885254 19.4121 0.885254 17.0415C0.885254 14.6709 1.30667 12.4787 2.14951 10.4651C3.00687 8.43725 4.19847 6.66641 5.72429 5.15264C7.26464 3.63886 9.0593 2.46068 11.1083 1.61811C13.1572 0.775535 15.3878 0.354248 17.8001 0.354248C20.0525 0.354248 22.2322 0.739833 24.3393 1.511C26.4464 2.28217 28.3282 3.3818 29.9849 4.80989L25.6472 9.07275Z" fill="#545454"/>
<path d="M41.058 6.58787C40.2297 6.58787 39.5321 6.30225 38.9654 5.73101C38.3987 5.15978 38.1153 4.46715 38.1153 3.65314C38.1153 2.83913 38.3987 2.15364 38.9654 1.59669C39.5321 1.02545 40.2297 0.739833 41.058 0.739833C41.9008 0.739833 42.6056 1.02545 43.1723 1.59669C43.7536 2.15364 44.0442 2.83913 44.0442 3.65314C44.0442 4.46715 43.7536 5.15978 43.1723 5.73101C42.6056 6.30225 41.9008 6.58787 41.058 6.58787ZM44.1968 33.1289H37.9409V11.7076H44.1968V33.1289Z" fill="#545454"/>
<path d="M57.6022 33.1289H51.3464V17.1914H47.5318V11.7076H51.3464V8.36584C51.3464 6.8235 51.7169 5.45253 52.458 4.25294C53.1991 3.03906 54.2164 2.08938 55.5097 1.4039C56.8175 0.70413 58.2997 0.354248 59.9563 0.354248C61.0026 0.354248 62.0707 0.504198 63.1606 0.804097C64.2504 1.08972 65.3258 1.5467 66.3866 2.17506L64.0107 6.95203C63.5457 6.58073 63.0516 6.30939 62.5284 6.13802C62.0198 5.95237 61.5112 5.85954 61.0026 5.85954C60.0435 5.85954 59.237 6.188 58.5831 6.84492C57.9292 7.50185 57.6022 8.40868 57.6022 9.56544V11.7076H64.1197V17.1914H57.6022V33.1289Z" fill="#545454"/>
<path d="M84.2605 32.572C82.5894 33.2289 80.9691 33.5574 79.3997 33.5574C77.7721 33.5574 76.3335 33.2218 75.0838 32.5506C73.8486 31.8651 72.8822 30.9154 72.1847 29.7015C71.4872 28.4734 71.1384 27.0596 71.1384 25.4601V17.1914H67.3239V11.7076H71.4654V6.35223H77.3943V11.7076H83.4322V17.1914H77.3943V24.3462C77.3943 25.5172 77.7213 26.4312 78.3752 27.0881C79.0291 27.7308 79.8429 28.0521 80.8165 28.0521C81.7029 28.0521 82.5676 27.7807 83.4104 27.2381L84.2605 32.572Z" fill="#545454"/>
<path d="M106.08 33.1289H98.9738L85.9389 0.996889H92.9795L102.527 25.5886L112.03 0.996889H119.093L106.08 33.1289Z" fill="#545454"/>
<path d="M124.324 6.58787C123.496 6.58787 122.798 6.30225 122.232 5.73101C121.665 5.15978 121.382 4.46715 121.382 3.65314C121.382 2.83913 121.665 2.15364 122.232 1.59669C122.798 1.02545 123.496 0.739833 124.324 0.739833C125.167 0.739833 125.872 1.02545 126.439 1.59669C127.02 2.15364 127.31 2.83913 127.31 3.65314C127.31 4.46715 127.02 5.15978 126.439 5.73101C125.872 6.30225 125.167 6.58787 124.324 6.58787ZM127.463 33.1289H121.207V11.7076H127.463V33.1289Z" fill="#545454"/>
<path d="M131.321 31.2867L132.694 26.0599C133.13 26.5312 133.712 26.9667 134.438 27.3666C135.179 27.7665 135.971 28.0878 136.814 28.3306C137.672 28.5591 138.478 28.6733 139.234 28.6733C140.135 28.6733 140.839 28.5091 141.348 28.1806C141.857 27.8379 142.111 27.3809 142.111 26.8096C142.111 26.3384 141.937 25.9456 141.588 25.6315C141.254 25.303 140.796 25.0174 140.215 24.7746C139.648 24.5176 139.016 24.2676 138.318 24.0249C137.374 23.6678 136.4 23.2537 135.397 22.7824C134.409 22.3112 133.574 21.6685 132.891 20.8545C132.208 20.0405 131.866 18.9623 131.866 17.6199C131.866 16.3346 132.208 15.2207 132.891 14.2781C133.574 13.3213 134.54 12.5859 135.79 12.0717C137.039 11.5433 138.493 11.2791 140.149 11.2791C142.838 11.2791 145.519 11.9432 148.192 13.2713L146.427 18.134C145.962 17.777 145.381 17.4485 144.683 17.1486C143.986 16.8344 143.266 16.5845 142.525 16.3989C141.799 16.2132 141.145 16.1204 140.563 16.1204C139.851 16.1204 139.292 16.2632 138.885 16.5488C138.493 16.8344 138.296 17.2271 138.296 17.727C138.296 18.0983 138.434 18.4339 138.711 18.7338C138.987 19.0194 139.394 19.2979 139.931 19.5692C140.483 19.8263 141.159 20.1048 141.958 20.4047C142.947 20.7617 143.942 21.1901 144.945 21.6899C145.962 22.1755 146.812 22.8324 147.495 23.6607C148.192 24.4747 148.541 25.5601 148.541 26.9167C148.541 28.2449 148.171 29.4088 147.43 30.4084C146.703 31.4081 145.671 32.1864 144.334 32.7434C143.012 33.286 141.457 33.5574 139.67 33.5574C136.691 33.5574 133.908 32.8005 131.321 31.2867Z" fill="#545454"/>
<path d="M167.352 32.572C165.681 33.2289 164.061 33.5574 162.492 33.5574C160.864 33.5574 159.425 33.2218 158.176 32.5506C156.94 31.8651 155.974 30.9154 155.277 29.7015C154.579 28.4734 154.23 27.0596 154.23 25.4601V17.1914H150.416V11.7076H154.557V6.35223H160.486V11.7076H166.524V17.1914H160.486V24.3462C160.486 25.5172 160.813 26.4312 161.467 27.0881C162.121 27.7308 162.935 28.0521 163.908 28.0521C164.795 28.0521 165.659 27.7807 166.502 27.2381L167.352 32.572Z" fill="#545454"/>
<path d="M190 33.1289H184.551L184.224 30.5798C183.424 31.5223 182.436 32.2578 181.259 32.7862C180.082 33.3003 178.789 33.5574 177.379 33.5574C175.853 33.5574 174.495 33.2718 173.303 32.7005C172.111 32.115 171.174 31.3153 170.491 30.3013C169.808 29.2731 169.467 28.1092 169.467 26.8096C169.467 25.4387 169.837 24.2319 170.578 23.1894C171.32 22.1469 172.337 21.3329 173.63 20.7474C174.938 20.1476 176.42 19.8477 178.077 19.8477C179.05 19.8477 180.024 19.9548 180.998 20.169C181.986 20.3832 182.901 20.6831 183.744 21.0687V20.5118C183.744 19.6549 183.497 18.9194 183.003 18.3054C182.523 17.677 181.855 17.1914 180.998 16.8487C180.155 16.506 179.21 16.3346 178.164 16.3346C177.161 16.3346 176.166 16.4917 175.178 16.8059C174.204 17.12 173.303 17.5913 172.475 18.2197L170.775 13.5284C172.242 12.7858 173.725 12.2288 175.221 11.8575C176.733 11.4719 178.193 11.2791 179.603 11.2791C181.724 11.2791 183.562 11.6933 185.117 12.5216C186.672 13.3356 187.871 14.4924 188.714 15.9918C189.571 17.4771 190 19.2408 190 21.2829V33.1289ZM178.752 28.8232C179.581 28.8232 180.373 28.6447 181.128 28.2877C181.884 27.9307 182.494 27.4451 182.959 26.8311C183.439 26.217 183.693 25.5386 183.722 24.796V24.6461C183.083 24.2177 182.371 23.8892 181.586 23.6607C180.816 23.4179 180.031 23.2965 179.232 23.2965C178.04 23.2965 177.067 23.5536 176.311 24.0677C175.555 24.5818 175.178 25.2459 175.178 26.0599C175.178 26.5883 175.33 27.0667 175.635 27.4951C175.955 27.9093 176.384 28.2377 176.921 28.4805C177.459 28.709 178.069 28.8232 178.752 28.8232Z" fill="#545454"/>
</svg>
